<svg width="113" height="118" viewBox="0 0 113 118" fill="none" xmlns="http://www.w3.org/2000/svg">
<path fill-rule="evenodd" clip-rule="evenodd" d="M56.1943 86.8571V99.9999L108.388 73.7146V60.5718L56.1943 86.8571Z" fill="#014F8A"/>
<path fill-rule="evenodd" clip-rule="evenodd" d="M56.1943 86.8571V99.9999L4.00027 73.7146V60.5718L56.1943 86.8571Z" fill="#003E77"/>
<path fill-rule="evenodd" clip-rule="evenodd" d="M4 69.3336L56.1944 95.6189V91.2379L4 64.9526V69.3336Z" fill="#1D3261"/>
<path fill-rule="evenodd" clip-rule="evenodd" d="M108.396 69.3336L56.2011 95.6189V91.2379L108.396 64.9526V69.3336Z" fill="#384E81"/>
<path fill-rule="evenodd" clip-rule="evenodd" d="M4 60.5718L56.1965 86.857L108.391 60.5718L56.1965 34.2861L4 60.5718Z" fill="#4EC5FB"/>
<path fill-rule="evenodd" clip-rule="evenodd" d="M14.873 61.666L56.1951 82.4755L97.5171 61.666L56.1951 40.8569L17.0479 60.5708L19.2228 61.666L56.1951 43.0474L93.1677 61.666L56.1951 80.285L17.0479 60.5708L14.873 61.666Z" fill="#1D3261"/>
<path fill-rule="evenodd" clip-rule="evenodd" d="M36.6219 55.0958L23.5732 61.6672L56.1948 78.0954L88.8163 61.6672L76.3252 54.8154L71.4195 57.2862L82.292 62.7624L56.1948 75.9049L30.0976 62.7624L40.9701 57.2862L36.6219 55.0958Z" fill="#002D85"/>
<path fill-rule="evenodd" clip-rule="evenodd" d="M56.1984 75.905V64.9527L30.0977 62.7622L56.1984 75.905Z" fill="#384E81"/>
<path fill-rule="evenodd" clip-rule="evenodd" d="M56.1932 75.905V64.9527L82.2939 62.7622L56.1932 75.905Z" fill="#1D3261"/>
<path fill-rule="evenodd" clip-rule="evenodd" d="M56.1984 64.9528L30.0977 62.7623L40.974 57.2861L56.1984 64.9528Z" fill="#1D3261"/>
<path fill-rule="evenodd" clip-rule="evenodd" d="M56.1932 64.9528L82.2939 62.7623L71.4176 57.2861L56.1932 64.9528Z" fill="#384E81"/>
<path fill-rule="evenodd" clip-rule="evenodd" d="M47.4999 60.5718L40.9756 63.8575L56.2003 71.5241V64.9527L47.4999 60.5718Z" fill="#00123C"/>
<path fill-rule="evenodd" clip-rule="evenodd" d="M64.8985 60.5718L71.4229 63.8575L56.1982 71.5241V64.9527L64.8985 60.5718Z" fill="black"/>
<path fill-rule="evenodd" clip-rule="evenodd" d="M4 60.5713L56.1983 86.8569V89.0474L4 62.7618V60.5713Z" fill="url(#paint0_linear_1201_113981)"/>
<path fill-rule="evenodd" clip-rule="evenodd" d="M45.3206 68.2388L56.197 73.715L58.3731 72.6197L60.5453 73.715L56.197 75.9054L43.1484 69.334L45.3206 68.2388Z" fill="url(#paint1_linear_1201_113981)"/>
<path fill-rule="evenodd" clip-rule="evenodd" d="M64.8945 69.3337L77.9432 62.7623L73.5949 60.5718L75.771 59.4766L82.2953 62.7623L67.0706 70.4289L64.8945 69.3337Z" fill="url(#paint2_linear_1201_113981)"/>
<path fill-rule="evenodd" clip-rule="evenodd" d="M40.974 57.2861L30.0977 62.7623L34.4497 64.9528L36.6258 63.8575L34.4497 62.7623L43.1501 58.3814L40.974 57.2861Z" fill="url(#paint3_linear_1201_113981)"/>
<path fill-rule="evenodd" clip-rule="evenodd" d="M108.396 60.5713L56.1972 86.8569V89.0474L108.396 62.7618V60.5713Z" fill="url(#paint4_linear_1201_113981)"/>
<path fill-rule="evenodd" clip-rule="evenodd" d="M25.7481 62.7634L23.5732 61.6668L56.1958 45.2383L88.8181 61.6668L56.1958 78.0953L27.923 63.8566L56.1958 49.6212L80.1189 61.6668L56.1958 73.7157L36.6222 63.8566L56.1958 54.0008L71.4197 61.6668L56.1958 69.3328L45.3214 63.8566L56.1958 58.3804L62.7201 61.6668L56.1958 64.9532L54.021 63.8566L58.3703 61.6668L56.1958 60.5736L49.6712 63.8566L56.1958 67.143L67.0699 61.6668L56.1958 56.1906L40.972 63.8566L56.1958 71.5259L75.7691 61.6668L56.1958 51.811L32.2724 63.8566L56.1958 75.9055L84.4687 61.6668L56.1958 47.4281L25.7481 62.7634Z" fill="#1D3261"/>
<path fill-rule="evenodd" clip-rule="evenodd" d="M56.1943 80.2853L75.7672 70.4282L77.9433 71.5235L58.3704 81.3806L56.1943 80.2853Z" fill="url(#paint5_linear_1201_113981)"/>
<path fill-rule="evenodd" clip-rule="evenodd" d="M64.8945 71.5241L84.4674 61.667L86.6435 62.7622L67.0706 72.6193L64.8945 71.5241Z" fill="url(#paint6_linear_1201_113981)"/>
<path fill-rule="evenodd" clip-rule="evenodd" d="M58.374 70.4284L73.5948 62.7617L75.7709 63.857L60.5462 71.5236L58.374 70.4284Z" fill="url(#paint7_linear_1201_113981)"/>
<path fill-rule="evenodd" clip-rule="evenodd" d="M82.2949 67.1432L93.1713 61.6671L86.647 58.3814L88.8193 57.2861L97.5196 61.6671L84.471 68.2385L82.2949 67.1432Z" fill="url(#paint8_linear_1201_113981)"/>
<path fill-rule="evenodd" clip-rule="evenodd" d="M30.1035 67.1432L19.2271 61.6671L25.7514 58.3814L23.5792 57.2861L14.8788 61.6671L27.9275 68.2385L30.1035 67.1432Z" fill="url(#paint9_linear_1201_113981)"/>
<path fill-rule="evenodd" clip-rule="evenodd" d="M40.9717 44.146L56.1956 36.48L71.4195 44.146L56.1956 51.8119L40.9717 44.146Z" fill="#000D31"/>
<path fill-rule="evenodd" clip-rule="evenodd" d="M56.1914 51.8115V56.1911L80.1142 44.1455H71.4151L56.1914 51.8115Z" fill="#4EC5FB"/>
<path fill-rule="evenodd" clip-rule="evenodd" d="M56.1914 36.4761V32.0965L80.1142 44.1421H71.4151L56.1914 36.4761Z" fill="#4EC5FB"/>
<path fill-rule="evenodd" clip-rule="evenodd" d="M56.1914 51.8115V56.1911L32.2686 44.1455H40.9677L56.1914 51.8115Z" fill="#4EC5FB"/>
<path fill-rule="evenodd" clip-rule="evenodd" d="M56.1914 36.4761V32.0965L32.2686 44.1421H40.9677L56.1914 36.4761Z" fill="#4EC5FB"/>
<path fill-rule="evenodd" clip-rule="evenodd" d="M56.1932 56.191V73.7128L19.2207 55.0945L32.2697 44.1421L56.1932 56.191Z" fill="#057FA8"/>
<path fill-rule="evenodd" clip-rule="evenodd" d="M56.1906 56.191V73.7128L93.1631 55.0945L80.1141 44.1421L56.1906 56.191Z" fill="#0C94CE"/>
<path fill-rule="evenodd" clip-rule="evenodd" d="M56.1957 47.4293L38.7969 38.6668L56.1957 14.5723V47.4293Z" fill="#4268CF"/>
<path fill-rule="evenodd" clip-rule="evenodd" d="M56.1881 47.4293L73.5869 38.6668L56.1881 14.5723V47.4293Z" fill="#4E7AF3"/>
<path fill-rule="evenodd" clip-rule="evenodd" d="M38.7969 36.4766V38.6668L56.1915 47.4286V45.2384L38.7969 36.4766Z" fill="#1D3261"/>
<path fill-rule="evenodd" clip-rule="evenodd" d="M73.5811 36.4766V38.6668L56.1865 47.4286V45.2384L73.5811 36.4766Z" fill="#1D3261"/>
<path fill-rule="evenodd" clip-rule="evenodd" d="M62.7178 44.1432V41.9527L71.4183 37.5718V39.7623L62.7178 44.1432Z" fill="url(#paint10_linear_1201_113981)"/>
<path fill-rule="evenodd" clip-rule="evenodd" d="M56.1836 47.4289V45.2384L47.483 40.8574V43.0479L56.1836 47.4289Z" fill="url(#paint11_linear_1201_113981)"/>
<path fill-rule="evenodd" clip-rule="evenodd" d="M56.188 43.0469L36.6143 33.191L56.188 8V43.0469Z" fill="url(#paint12_linear_1201_113981)"/>
<g filter="url(#filter0_d_1201_113981)">
<path fill-rule="evenodd" clip-rule="evenodd" d="M56.1841 43.0469L75.7578 33.191L56.1841 8V43.0469Z" fill="url(#paint13_linear_1201_113981)"/>
</g>
<g filter="url(#filter1_b_1201_113981)">
<path fill-rule="evenodd" clip-rule="evenodd" d="M77 45.5L90 36L83.5 21L77 45.5Z" fill="url(#paint14_linear_1201_113981)" fill-opacity="0.3"/>
<path fill-rule="evenodd" clip-rule="evenodd" d="M57.5 66L72 63L53 39L57.5 66Z" fill="url(#paint15_linear_1201_113981)" fill-opacity="0.3"/>
<path fill-rule="evenodd" clip-rule="evenodd" d="M42.5 32L26 34.191L45.5737 9L42.5 32Z" fill="url(#paint16_linear_1201_113981)" fill-opacity="0.3"/>
</g>
<circle cx="92" cy="32" r="10" fill="url(#paint17_radial_1201_113981)"/>
<circle cx="25" cy="30" r="8" fill="url(#paint18_radial_1201_113981)"/>
<circle cx="76.5" cy="22.5" r="4.5" fill="url(#paint19_radial_1201_113981)"/>
<path d="M4 73.5L56 100" stroke="url(#paint20_linear_1201_113981)"/>
<path d="M4 65L56 91.5" stroke="url(#paint21_linear_1201_113981)"/>
<path d="M108 69L56 95.5" stroke="url(#paint22_linear_1201_113981)"/>
<path d="M108 74L56 100.5" stroke="url(#paint23_linear_1201_113981)"/>
<g filter="url(#filter2_f_1201_113981)">
<path fill-rule="evenodd" clip-rule="evenodd" d="M56.1943 100.285V113.428L108.388 87.1428V74L56.1943 100.285Z" fill="#014F8A"/>
</g>
<g filter="url(#filter3_f_1201_113981)">
<path fill-rule="evenodd" clip-rule="evenodd" d="M56.1943 100.285V113.428L4.00027 87.1428V74L56.1943 100.285Z" fill="url(#paint24_linear_1201_113981)"/>
</g>
<circle cx="60" cy="3" r="3" fill="url(#paint25_radial_1201_113981)"/>
<defs>
<filter id="filter0_d_1201_113981" x="52.1846" y="8" width="27.5732" height="43.0469" filterUnits="userSpaceOnUse" color-interpolation-filters="sRGB">
<feFlood flood-opacity="0" result="BackgroundImageFix"/>
<feColorMatrix in="SourceAlpha" type="matrix" values="0 0 0 0 0 0 0 0 0 0 0 0 0 0 0 0 0 0 127 0" result="hardAlpha"/>
<feOffset dy="4"/>
<feGaussianBlur stdDeviation="2"/>
<feComposite in2="hardAlpha" operator="out"/>
<feColorMatrix type="matrix" values="0 0 0 0 0 0 0 0 0 0 0 0 0 0 0 0 0 0 0.25 0"/>
<feBlend mode="normal" in2="BackgroundImageFix" result="effect1_dropShadow_1201_113981"/>
<feBlend mode="normal" in="SourceGraphic" in2="effect1_dropShadow_1201_113981" result="shape"/>
</filter>
<filter id="filter1_b_1201_113981" x="22" y="5" width="72" height="65" filterUnits="userSpaceOnUse" color-interpolation-filters="sRGB">
<feFlood flood-opacity="0" result="BackgroundImageFix"/>
<feGaussianBlur in="BackgroundImageFix" stdDeviation="2"/>
<feComposite in2="SourceAlpha" operator="in" result="effect1_backgroundBlur_1201_113981"/>
<feBlend mode="normal" in="SourceGraphic" in2="effect1_backgroundBlur_1201_113981" result="shape"/>
</filter>
<filter id="filter2_f_1201_113981" x="52.1943" y="70" width="60.1943" height="47.4282" filterUnits="userSpaceOnUse" color-interpolation-filters="sRGB">
<feFlood flood-opacity="0" result="BackgroundImageFix"/>
<feBlend mode="normal" in="SourceGraphic" in2="BackgroundImageFix" result="shape"/>
<feGaussianBlur stdDeviation="2" result="effect1_foregroundBlur_1201_113981"/>
</filter>
<filter id="filter3_f_1201_113981" x="0" y="70" width="60.1943" height="47.4282" filterUnits="userSpaceOnUse" color-interpolation-filters="sRGB">
<feFlood flood-opacity="0" result="BackgroundImageFix"/>
<feBlend mode="normal" in="SourceGraphic" in2="BackgroundImageFix" result="shape"/>
<feGaussianBlur stdDeviation="2" result="effect1_foregroundBlur_1201_113981"/>
</filter>
<linearGradient id="paint0_linear_1201_113981" x1="6.17605" y1="75.357" x2="56.1975" y2="75.357" gradientUnits="userSpaceOnUse">
<stop stop-color="#336DFF"/>
<stop offset="1" stop-color="#00FFFF"/>
</linearGradient>
<linearGradient id="paint1_linear_1201_113981" x1="49.6728" y1="79.1911" x2="59.7546" y2="72.5178" gradientUnits="userSpaceOnUse">
<stop stop-color="#1D3261"/>
<stop offset="1" stop-color="#00FFFF"/>
</linearGradient>
<linearGradient id="paint2_linear_1201_113981" x1="67.0706" y1="66.048" x2="77.1524" y2="59.3747" gradientUnits="userSpaceOnUse">
<stop stop-color="#1D3261"/>
<stop offset="1" stop-color="#00FFFF"/>
</linearGradient>
<linearGradient id="paint3_linear_1201_113981" x1="40.9741" y1="57.2861" x2="30.8922" y2="63.9594" gradientUnits="userSpaceOnUse">
<stop stop-color="#1D3261"/>
<stop offset="1" stop-color="#00FFFF"/>
</linearGradient>
<linearGradient id="paint4_linear_1201_113981" x1="106.219" y1="75.357" x2="56.198" y2="75.357" gradientUnits="userSpaceOnUse">
<stop stop-color="#38FFFF"/>
<stop offset="1" stop-color="#38AFFF" stop-opacity="0.75"/>
</linearGradient>
<linearGradient id="paint5_linear_1201_113981" x1="58.3704" y1="81.3806" x2="75.6092" y2="69.7204" gradientUnits="userSpaceOnUse">
<stop stop-color="#1D3261"/>
<stop offset="1" stop-color="#00FFFF"/>
</linearGradient>
<linearGradient id="paint6_linear_1201_113981" x1="67.0706" y1="72.6193" x2="84.3094" y2="60.9592" gradientUnits="userSpaceOnUse">
<stop stop-color="#1D3261"/>
<stop offset="1" stop-color="#00FFFF"/>
</linearGradient>
<linearGradient id="paint7_linear_1201_113981" x1="56.198" y1="73.7141" x2="73.4368" y2="62.0539" gradientUnits="userSpaceOnUse">
<stop stop-color="#1D3261"/>
<stop offset="1" stop-color="#00FFFF"/>
</linearGradient>
<linearGradient id="paint8_linear_1201_113981" x1="84.471" y1="68.2385" x2="101.71" y2="56.5783" gradientUnits="userSpaceOnUse">
<stop stop-color="#1D3261"/>
<stop offset="1" stop-color="#00FFFF"/>
</linearGradient>
<linearGradient id="paint9_linear_1201_113981" x1="23.5792" y1="57.2861" x2="26.9755" y2="68.5265" gradientUnits="userSpaceOnUse">
<stop stop-color="#1D3261"/>
<stop offset="1" stop-color="#00FFFF"/>
</linearGradient>
<linearGradient id="paint10_linear_1201_113981" x1="54.0172" y1="39.7623" x2="71.4163" y2="39.7623" gradientUnits="userSpaceOnUse">
<stop stop-color="#1D3261"/>
<stop offset="1" stop-color="#00FFFF"/>
</linearGradient>
<linearGradient id="paint11_linear_1201_113981" x1="47.483" y1="40.8574" x2="55.5486" y2="46.1962" gradientUnits="userSpaceOnUse">
<stop stop-color="#1D3261"/>
<stop offset="1" stop-color="#00FFFF"/>
</linearGradient>
<linearGradient id="paint12_linear_1201_113981" x1="56.188" y1="10.1898" x2="34.0079" y2="24.871" gradientUnits="userSpaceOnUse">
<stop stop-color="#F9B401" stop-opacity="0.5"/>
<stop offset="1" stop-color="#24F901"/>
</linearGradient>
<linearGradient id="paint13_linear_1201_113981" x1="76" y1="21" x2="56.1843" y2="16.2159" gradientUnits="userSpaceOnUse">
<stop stop-color="#FF1BB1" stop-opacity="0.5"/>
<stop offset="1" stop-color="#00A0E9"/>
</linearGradient>
<linearGradient id="paint14_linear_1201_113981" x1="109.923" y1="12.7162" x2="86" y2="12.7162" gradientUnits="userSpaceOnUse">
<stop stop-color="#01F8F9" stop-opacity="0.5"/>
<stop offset="1" stop-color="#01F8F9"/>
</linearGradient>
<linearGradient id="paint15_linear_1201_113981" x1="90.4233" y1="33.2162" x2="66.5" y2="33.2162" gradientUnits="userSpaceOnUse">
<stop stop-color="#01F8F9"/>
<stop offset="1" stop-color="#01F9F9"/>
</linearGradient>
<linearGradient id="paint16_linear_1201_113981" x1="21.6504" y1="15.7162" x2="45.5737" y2="15.7162" gradientUnits="userSpaceOnUse">
<stop stop-color="#01F8F9" stop-opacity="0.5"/>
<stop offset="1" stop-color="#01F8F9"/>
</linearGradient>
<radialGradient id="paint17_radial_1201_113981" cx="0" cy="0" r="1" gradientUnits="userSpaceOnUse" gradientTransform="translate(92 32) rotate(90) scale(8.75)">
<stop stop-color="#71E5FF"/>
<stop offset="1" stop-color="#38DBFF" stop-opacity="0"/>
</radialGradient>
<radialGradient id="paint18_radial_1201_113981" cx="0" cy="0" r="1" gradientUnits="userSpaceOnUse" gradientTransform="translate(25 30) rotate(90) scale(7)">
<stop stop-color="#71E5FF"/>
<stop offset="1" stop-color="#38DBFF" stop-opacity="0"/>
</radialGradient>
<radialGradient id="paint19_radial_1201_113981" cx="0" cy="0" r="1" gradientUnits="userSpaceOnUse" gradientTransform="translate(76.5 22.5) rotate(90) scale(3.9375)">
<stop stop-color="#71E5FF"/>
<stop offset="1" stop-color="#38DBFF" stop-opacity="0"/>
</radialGradient>
<linearGradient id="paint20_linear_1201_113981" x1="4.5" y1="74" x2="33.5" y2="88.5" gradientUnits="userSpaceOnUse">
<stop stop-color="#003E77"/>
<stop offset="0.526042" stop-color="#00FFF0"/>
<stop offset="1" stop-color="#003E77"/>
</linearGradient>
<linearGradient id="paint21_linear_1201_113981" x1="4.5" y1="65.5" x2="56" y2="91.5" gradientUnits="userSpaceOnUse">
<stop stop-color="#003E77"/>
<stop offset="0.796971" stop-color="#00FFF0"/>
<stop offset="1" stop-color="#003E77"/>
</linearGradient>
<linearGradient id="paint22_linear_1201_113981" x1="107.5" y1="69.5" x2="78.5" y2="84" gradientUnits="userSpaceOnUse">
<stop stop-color="#003E77"/>
<stop offset="0.526042" stop-color="#00FFF0"/>
<stop offset="1" stop-color="#003E77"/>
</linearGradient>
<linearGradient id="paint23_linear_1201_113981" x1="107.5" y1="74.5" x2="57" y2="100.5" gradientUnits="userSpaceOnUse">
<stop stop-color="#003E77"/>
<stop offset="0.81682" stop-color="#00FFF0"/>
<stop offset="1" stop-color="#003E77"/>
</linearGradient>
<linearGradient id="paint24_linear_1201_113981" x1="30.0973" y1="74" x2="30.0973" y2="113.428" gradientUnits="userSpaceOnUse">
<stop stop-color="#003E77"/>
<stop offset="1" stop-color="#003E77" stop-opacity="0"/>
</linearGradient>
<radialGradient id="paint25_radial_1201_113981" cx="0" cy="0" r="1" gradientUnits="userSpaceOnUse" gradientTransform="translate(60 3) rotate(90) scale(2.625)">
<stop stop-color="#71E5FF"/>
<stop offset="1" stop-color="#38DBFF" stop-opacity="0"/>
</radialGradient>
</defs>
</svg>
